<svg xmlns="http://www.w3.org/2000/svg" viewBox="0 0 512 512" role="img" aria-labelledby="logo-title logo-desc">
  <title id="logo-title">Dromocob</title>
  <desc id="logo-desc">Mavi yön oku ve beyaz D formundan oluşan Dromocob amblemi</desc>
  <defs>
    <linearGradient id="surface" x1="84" y1="48" x2="428" y2="464" gradientUnits="userSpaceOnUse">
      <stop stop-color="#1b2430"/>
      <stop offset="1" stop-color="#080d12"/>
    </linearGradient>
    <linearGradient id="arrow" x1="116" y1="168" x2="246" y2="344" gradientUnits="userSpaceOnUse">
      <stop stop-color="#00b6ff"/>
      <stop offset="1" stop-color="#0068e8"/>
    </linearGradient>
    <filter id="shadow" x="-20%" y="-20%" width="140%" height="140%">
      <feDropShadow dx="0" dy="14" stdDeviation="16" flood-color="#000" flood-opacity=".28"/>
    </filter>
  </defs>
  <rect x="20" y="20" width="472" height="472" rx="112" fill="url(#surface)"/>
  <rect x="21" y="21" width="470" height="470" rx="111" fill="none" stroke="#607080" stroke-opacity=".4" stroke-width="2"/>
  <g filter="url(#shadow)">
    <path fill="#f7f9fc" fill-rule="evenodd" d="M148 139h140c78 0 126 45 126 117s-48 117-126 117H148l54-52h86c44 0 70-23 70-65s-26-65-70-65h-86l-54-52Z" clip-rule="evenodd"/>
    <path fill="url(#arrow)" d="M98 188h66l68 68-68 68H98l67-68-67-68Z"/>
    <path fill="#78d4ff" fill-opacity=".36" d="m165 188 67 68-16 16-52-52H130l-32-32h67Z"/>
  </g>
</svg>
